<svg width="30" height="30" viewBox="0 0 30 30" fill="none" xmlns="http://www.w3.org/2000/svg">
<path fill-rule="evenodd" clip-rule="evenodd" d="M13.5871 14.2903C13.9777 14.6809 13.9777 15.3142 13.5871 15.7048L0.146497 29.1415C-0.0487926 29.3367 -0.0488379 29.6533 0.146397 29.8486C0.341631 30.0439 0.658213 30.0439 0.853503 29.8487L14.2947 16.4114C14.6852 16.021 15.3182 16.021 15.7087 16.4114L29.1499 29.8487C29.3452 30.0439 29.6618 30.0439 29.857 29.8486C30.0522 29.6533 30.0522 29.3367 29.8569 29.1415L16.4163 15.7048C16.0257 15.3142 16.0257 14.6809 16.4163 14.2903L29.8569 0.853603C30.0522 0.658369 30.0522 0.341787 29.857 0.146497C29.6618 -0.0487928 29.3452 -0.0488379 29.1499 0.146396L15.7087 13.5837C15.3182 13.9741 14.6852 13.9741 14.2947 13.5837L0.853503 0.146396C0.658213 -0.0488382 0.34163 -0.0487929 0.146396 0.146497C-0.048838 0.341787 -0.0487931 0.658369 0.146497 0.853604L13.5871 14.2903Z" fill="#F0D7A0" fill-opacity="0.7"/>
</svg>
