<svg width="40" height="40" viewBox="0 0 40 40" fill="none" xmlns="http://www.w3.org/2000/svg">
<path fill-rule="evenodd" clip-rule="evenodd" d="M15.8263 2C15.8263 0.895431 16.7217 0 17.8263 0H22.1747C23.2792 0 24.1747 0.895431 24.1747 2C24.1747 3.36811 25.1311 4.53061 26.415 5.00325C28.0336 5.5991 29.5328 6.41377 30.8702 7.4079C31.915 8.1845 33.3134 8.40217 34.461 7.78769L34.8271 7.5917C35.8009 7.07032 37.0635 7.40781 37.6473 8.34551L39.7074 11.6546C40.2911 12.5923 39.975 13.7751 39.0012 14.2964L38.8985 14.3514C37.6304 15.0304 37.0562 16.5121 37.2523 17.937C37.3453 18.6125 37.3933 19.3011 37.3933 20C37.3933 20.7007 37.3451 21.391 37.2516 22.0682C37.0549 23.4933 37.6289 24.9755 38.8971 25.6548L38.9983 25.709C39.972 26.2305 40.2882 27.4135 39.7046 28.3513L37.645 31.6608C37.0614 32.5986 35.799 32.936 34.8253 32.4145L34.456 32.2167C33.3086 31.6021 31.9105 31.8194 30.8656 32.5955C29.5294 33.5881 28.0317 34.4016 26.415 34.9968C25.1311 35.4694 24.1747 36.6319 24.1747 38C24.1747 39.1046 23.2792 40 22.1747 40H17.8263C16.7217 40 15.8263 39.1046 15.8263 38C15.8263 36.6318 14.8697 35.4692 13.5858 34.9965C11.9674 34.4006 10.4684 33.586 9.13112 32.5919C8.08631 31.8153 6.68795 31.5976 5.54027 32.2121L5.17317 32.4087C4.1994 32.93 2.93675 32.5926 2.35297 31.6549L0.29288 28.3458C-0.290897 27.4081 0.0252588 26.2253 0.999034 25.7039L1.10304 25.6482C2.37108 24.9693 2.94536 23.4876 2.74921 22.0627C2.65624 21.3873 2.60831 20.6988 2.60831 20C2.60831 19.3012 2.65624 18.6127 2.74921 17.9373C2.94532 16.5126 2.37125 15.0312 1.10352 14.3522L0.999898 14.2966C0.0262075 13.7751 -0.290011 12.5921 0.293602 11.6543L2.35315 8.34483C2.93676 7.40703 4.19921 7.06958 5.1729 7.59112L5.5398 7.78764C6.68756 8.40241 8.08619 8.18478 9.13116 7.40803C10.4684 6.41401 11.9675 5.59939 13.5858 5.00354C14.8697 4.5308 15.8263 3.36822 15.8263 2ZM20.0007 29.6774C25.764 29.6774 30.4362 25.3447 30.4362 20C30.4362 14.6553 25.764 10.3226 20.0007 10.3226C14.2373 10.3226 9.56519 14.6553 9.56519 20C9.56519 25.3447 14.2373 29.6774 20.0007 29.6774Z" fill="#F0D7A0"/>
</svg>
